<mxfile host="Electron" agent="Mozilla/5.0 (Macintosh; Intel Mac OS X 10_15_7) AppleWebKit/537.36 (KHTML, like Gecko) draw.io/26.0.16 Chrome/132.0.6834.196 Electron/34.2.0 Safari/537.36" version="26.0.16">
  <diagram name="Página-1" id="csSn5JXQ56xnwb9KgIkt">
    <mxGraphModel dx="383" dy="713" grid="1" gridSize="10" guides="1" tooltips="1" connect="1" arrows="1" fold="1" page="1" pageScale="1" pageWidth="827" pageHeight="1169" math="0" shadow="0">
      <root>
        <mxCell id="0" />
        <mxCell id="1" parent="0" />
        <mxCell id="gIALb-mUkqeqKEL-KeRg-1" value="" style="shape=image;aspect=fixed;image=data:image/svg+xml,PD94bWwgdmVyc2lvbj0iMS4wIiBlbmNvZGluZz0iaXNvLTg4NTktMSI/Pg0KPCEtLSBVcGxvYWRlZCB0bzogU1ZHIFJlcG8sIHd3dy5zdmdyZXBvLmNvbSwgR2VuZXJhdG9yOiBTVkcgUmVwbyBNaXhlciBUb29scyAtLT4NCjxzdmcgZmlsbD0iIzAwMDAwMCIgaGVpZ2h0PSI4MDBweCIgd2lkdGg9IjgwMHB4IiB2ZXJzaW9uPSIxLjEiIGlkPSJMYXllcl8xIiB4bWxucz0iaHR0cDovL3d3dy53My5vcmcvMjAwMC9zdmciIHhtbG5zOnhsaW5rPSJodHRwOi8vd3d3LnczLm9yZy8xOTk5L3hsaW5rIiANCgkgdmlld0JveD0iMCAwIDQ4OCA0ODgiIHhtbDpzcGFjZT0icHJlc2VydmUiPg0KPGcgdHJhbnNmb3JtPSJ0cmFuc2xhdGUoMCAtNTQwLjM2KSI+DQoJPGc+DQoJCTxnPg0KCQkJPHBhdGggZD0iTTM1MS4xLDg0Ni45NmwtOTcuMS02Ny45di0xMTYuN2MwLTUuNS00LjUtMTAtMTAtMTBzLTEwLDQuNS0xMCwxMHYxMjJjMCwzLjMsMS42LDYuMyw0LjMsOC4ybDEwMS40LDcwLjkNCgkJCQljMS43LDEuMiwzLjcsMS44LDUuNywxLjh2MGMzLjEsMCw2LjItMS41LDguMi00LjRDMzU2LjcsODU2LjM2LDM1NS42LDg1MC4xNiwzNTEuMSw4NDYuOTZ6Ii8+DQoJCQk8cGF0aCBkPSJNNDE2LjQsNjExLjk2TDQxNi40LDYxMS45NmMtNDYuMi00Ni4yLTEwNy40LTcxLjYtMTcyLjQtNzEuNnMtMTI2LjIsMjUuNC0xNzIuNCw3MS42QzI1LjQsNjU4LjE2LDAsNzE5LjM2LDAsNzg0LjM2DQoJCQkJczI1LjQsMTI2LjIsNzEuNiwxNzIuNGM0Ni4yLDQ2LjIsMTA3LjQsNzEuNiwxNzIuNCw3MS42czEyNi4yLTI1LjQsMTcyLjQtNzEuNnM3MS42LTEwNy40LDcxLjYtMTcyLjRTNDYyLjYsNjU4LjE2LDQxNi40LDYxMS45Ng0KCQkJCXogTTI1NCwxMDA4LjE2TDI1NCwxMDA4LjE2di00MC44YzAtNS41LTQuNS0xMC0xMC0xMHMtMTAsNC41LTEwLDEwdjQwLjhjLTExNS42LTUuMS0yMDguNy05OC4yLTIxMy44LTIxMy44SDYxDQoJCQkJYzUuNSwwLDEwLTQuNSwxMC0xMHMtNC41LTEwLTEwLTEwSDIwLjJjNS4xLTExNS42LDk4LjItMjA4LjcsMjEzLjgtMjEzLjh2NDAuOGMwLDUuNSw0LjUsMTAsMTAsMTBzMTAtNC41LDEwLTEwdi00MC44DQoJCQkJYzExNS42LDUuMSwyMDguNyw5OC4yLDIxMy44LDIxMy44SDQyN2MtNS41LDAtMTAsNC41LTEwLDEwczQuNSwxMCwxMCwxMGg0MC44QzQ2Mi43LDkwOS45NiwzNjkuNiwxMDAzLjA2LDI1NCwxMDA4LjE2eiIvPg0KCQk8L2c+DQoJPC9nPg0KPC9nPg0KPC9zdmc+;" parent="1" vertex="1">
          <mxGeometry x="938" y="34" width="40" height="40" as="geometry" />
        </mxCell>
        <mxCell id="gIALb-mUkqeqKEL-KeRg-2" value="&lt;font color=&quot;#7ea6e0&quot; style=&quot;font-size: 43px;&quot;&gt;{&lt;/font&gt;" style="text;strokeColor=none;align=center;fillColor=none;html=1;verticalAlign=middle;whiteSpace=wrap;rounded=0;" parent="1" vertex="1">
          <mxGeometry x="900" y="20" width="63" height="60" as="geometry" />
        </mxCell>
        <mxCell id="nA5Wse7C6HK7rVOY0XSW-2" value="&lt;font color=&quot;#7ea6e0&quot; style=&quot;font-size: 43px;&quot;&gt;}&lt;/font&gt;" style="text;strokeColor=none;align=center;fillColor=none;html=1;verticalAlign=middle;whiteSpace=wrap;rounded=0;" parent="1" vertex="1">
          <mxGeometry x="953" y="20" width="63" height="60" as="geometry" />
        </mxCell>
        <mxCell id="nA5Wse7C6HK7rVOY0XSW-3" value="&lt;font style=&quot;font-size: 24px;&quot;&gt;&lt;font color=&quot;#7ea6e0&quot;&gt;Open&lt;/font&gt;Simula&lt;/font&gt;" style="text;strokeColor=none;align=center;fillColor=none;html=1;verticalAlign=middle;whiteSpace=wrap;rounded=0;" parent="1" vertex="1">
          <mxGeometry x="978" y="39" width="170" height="30" as="geometry" />
        </mxCell>
        <mxCell id="BMFiGqugH4gfV7-OYixn-1" value="" style="endArrow=classic;html=1;rounded=0;" parent="1" edge="1">
          <mxGeometry width="50" height="50" relative="1" as="geometry">
            <mxPoint x="960" y="400" as="sourcePoint" />
            <mxPoint x="1520" y="400" as="targetPoint" />
          </mxGeometry>
        </mxCell>
        <mxCell id="BMFiGqugH4gfV7-OYixn-2" value="" style="endArrow=classic;html=1;rounded=0;" parent="1" edge="1">
          <mxGeometry width="50" height="50" relative="1" as="geometry">
            <mxPoint x="960" y="660" as="sourcePoint" />
            <mxPoint x="960" y="120" as="targetPoint" />
          </mxGeometry>
        </mxCell>
        <mxCell id="BMFiGqugH4gfV7-OYixn-3" value="" style="endArrow=none;dashed=1;html=1;rounded=0;strokeColor=#0000FF;" parent="1" edge="1">
          <mxGeometry width="50" height="50" relative="1" as="geometry">
            <mxPoint x="1359.8" y="500" as="sourcePoint" />
            <mxPoint x="1359.8" y="400" as="targetPoint" />
          </mxGeometry>
        </mxCell>
        <mxCell id="BMFiGqugH4gfV7-OYixn-4" value="" style="endArrow=none;dashed=1;html=1;rounded=0;strokeColor=#0000FF;exitX=0.836;exitY=0.003;exitDx=0;exitDy=0;exitPerimeter=0;" parent="1" edge="1">
          <mxGeometry width="50" height="50" relative="1" as="geometry">
            <mxPoint x="1398.6799999999998" y="600.0899999999999" as="sourcePoint" />
            <mxPoint x="1400" y="360" as="targetPoint" />
          </mxGeometry>
        </mxCell>
        <mxCell id="BMFiGqugH4gfV7-OYixn-6" value="" style="endArrow=none;dashed=1;html=1;rounded=0;strokeColor=#FF0000;" parent="1" edge="1">
          <mxGeometry width="50" height="50" relative="1" as="geometry">
            <mxPoint x="1080" y="401" as="sourcePoint" />
            <mxPoint x="1080" y="300" as="targetPoint" />
          </mxGeometry>
        </mxCell>
        <mxCell id="BMFiGqugH4gfV7-OYixn-8" value="" style="endArrow=none;dashed=1;html=1;rounded=0;strokeColor=#FF0000;" parent="1" edge="1">
          <mxGeometry width="50" height="50" relative="1" as="geometry">
            <mxPoint x="1040" y="440" as="sourcePoint" />
            <mxPoint x="1040" y="201" as="targetPoint" />
          </mxGeometry>
        </mxCell>
        <mxCell id="BMFiGqugH4gfV7-OYixn-9" value="" style="endArrow=none;html=1;rounded=0;strokeWidth=3;strokeColor=#FF0000;" parent="1" edge="1">
          <mxGeometry width="50" height="50" relative="1" as="geometry">
            <mxPoint x="960" y="200" as="sourcePoint" />
            <mxPoint x="1040" y="200" as="targetPoint" />
          </mxGeometry>
        </mxCell>
        <mxCell id="BMFiGqugH4gfV7-OYixn-10" value="" style="endArrow=none;html=1;rounded=0;strokeWidth=3;strokeColor=#FF0000;" parent="1" edge="1">
          <mxGeometry width="50" height="50" relative="1" as="geometry">
            <mxPoint x="1040" y="200" as="sourcePoint" />
            <mxPoint x="1120" y="400" as="targetPoint" />
          </mxGeometry>
        </mxCell>
        <mxCell id="BMFiGqugH4gfV7-OYixn-11" value="" style="endArrow=none;html=1;rounded=0;strokeWidth=3;" parent="1" edge="1">
          <mxGeometry width="50" height="50" relative="1" as="geometry">
            <mxPoint x="1320" y="400" as="sourcePoint" />
            <mxPoint x="1120" y="400" as="targetPoint" />
          </mxGeometry>
        </mxCell>
        <mxCell id="BMFiGqugH4gfV7-OYixn-12" value="" style="endArrow=none;html=1;rounded=0;strokeWidth=3;strokeColor=#0000FF;" parent="1" edge="1">
          <mxGeometry width="50" height="50" relative="1" as="geometry">
            <mxPoint x="1400" y="600" as="sourcePoint" />
            <mxPoint x="1320" y="400" as="targetPoint" />
          </mxGeometry>
        </mxCell>
        <mxCell id="BMFiGqugH4gfV7-OYixn-13" value="" style="endArrow=none;html=1;rounded=0;strokeWidth=3;strokeColor=#0000FF;" parent="1" edge="1">
          <mxGeometry width="50" height="50" relative="1" as="geometry">
            <mxPoint x="1400" y="600" as="sourcePoint" />
            <mxPoint x="1480" y="600" as="targetPoint" />
          </mxGeometry>
        </mxCell>
        <mxCell id="BMFiGqugH4gfV7-OYixn-14" value="&lt;font face=&quot;Times New Roman&quot; style=&quot;font-size: 14px;&quot;&gt;&lt;i style=&quot;&quot;&gt;T&lt;sub style=&quot;&quot;&gt;csp&lt;/sub&gt;&lt;/i&gt;&lt;/font&gt;" style="text;html=1;align=center;verticalAlign=middle;resizable=0;points=[];autosize=1;strokeColor=none;fillColor=none;fontColor=#0000FF;" parent="1" vertex="1">
          <mxGeometry x="1338" y="371" width="50" height="30" as="geometry" />
        </mxCell>
        <mxCell id="BMFiGqugH4gfV7-OYixn-16" value="&lt;font face=&quot;Times New Roman&quot;&gt;&lt;span style=&quot;font-size: 14px;&quot;&gt;&lt;i&gt;Space Temp. &lt;/i&gt;[ºC]&lt;/span&gt;&lt;/font&gt;" style="text;html=1;align=center;verticalAlign=middle;resizable=0;points=[];autosize=1;strokeColor=none;fillColor=none;" parent="1" vertex="1">
          <mxGeometry x="1430" y="400" width="120" height="30" as="geometry" />
        </mxCell>
        <mxCell id="BMFiGqugH4gfV7-OYixn-17" value="&lt;font style=&quot;font-size: 14px;&quot; face=&quot;Times New Roman&quot;&gt;&lt;i style=&quot;&quot;&gt;T&lt;sub style=&quot;&quot;&gt;hsp&lt;/sub&gt;&lt;/i&gt;&lt;/font&gt;" style="text;html=1;align=center;verticalAlign=middle;resizable=0;points=[];autosize=1;strokeColor=none;fillColor=none;fontColor=#FF0000;" parent="1" vertex="1">
          <mxGeometry x="1056" y="400" width="50" height="30" as="geometry" />
        </mxCell>
        <mxCell id="BMFiGqugH4gfV7-OYixn-18" value="" style="endArrow=classic;startArrow=classic;html=1;rounded=0;fontColor=#FF0000;strokeColor=#FF0000;" parent="1" edge="1">
          <mxGeometry width="50" height="50" relative="1" as="geometry">
            <mxPoint x="1040" y="439" as="sourcePoint" />
            <mxPoint x="1120" y="439" as="targetPoint" />
          </mxGeometry>
        </mxCell>
        <mxCell id="BMFiGqugH4gfV7-OYixn-19" value="" style="endArrow=none;dashed=1;html=1;rounded=0;strokeColor=#FF0000;" parent="1" edge="1">
          <mxGeometry width="50" height="50" relative="1" as="geometry">
            <mxPoint x="1120" y="440" as="sourcePoint" />
            <mxPoint x="1120" y="400" as="targetPoint" />
          </mxGeometry>
        </mxCell>
        <mxCell id="BMFiGqugH4gfV7-OYixn-20" value="&lt;font face=&quot;Times New Roman&quot;&gt;&lt;span style=&quot;font-size: 14px;&quot;&gt;&lt;i&gt;Heating bandwidth&lt;/i&gt;&lt;/span&gt;&lt;/font&gt;" style="text;html=1;align=center;verticalAlign=middle;resizable=0;points=[];autosize=1;strokeColor=none;fillColor=none;fontColor=#FF0000;" parent="1" vertex="1">
          <mxGeometry x="1011" y="440" width="130" height="30" as="geometry" />
        </mxCell>
        <mxCell id="BMFiGqugH4gfV7-OYixn-21" value="" style="endArrow=classic;startArrow=classic;html=1;rounded=0;fontColor=#0000FF;strokeColor=#0000FF;" parent="1" edge="1">
          <mxGeometry width="50" height="50" relative="1" as="geometry">
            <mxPoint x="1320" y="364" as="sourcePoint" />
            <mxPoint x="1400" y="364" as="targetPoint" />
          </mxGeometry>
        </mxCell>
        <mxCell id="BMFiGqugH4gfV7-OYixn-22" value="&lt;font face=&quot;Times New Roman&quot;&gt;&lt;span style=&quot;font-size: 14px;&quot;&gt;&lt;i&gt;Cooling bandwidth&lt;/i&gt;&lt;/span&gt;&lt;/font&gt;" style="text;html=1;align=center;verticalAlign=middle;resizable=0;points=[];autosize=1;strokeColor=none;fillColor=none;fontColor=#0000FF;" parent="1" vertex="1">
          <mxGeometry x="1290" y="329" width="130" height="30" as="geometry" />
        </mxCell>
        <mxCell id="BMFiGqugH4gfV7-OYixn-23" value="" style="endArrow=none;dashed=1;html=1;rounded=0;strokeColor=#0000FF;" parent="1" edge="1">
          <mxGeometry width="50" height="50" relative="1" as="geometry">
            <mxPoint x="1319" y="400" as="sourcePoint" />
            <mxPoint x="1319" y="360" as="targetPoint" />
          </mxGeometry>
        </mxCell>
        <mxCell id="BMFiGqugH4gfV7-OYixn-24" value="&lt;font face=&quot;Times New Roman&quot;&gt;&lt;i style=&quot;&quot;&gt;&lt;span style=&quot;font-size: 14px;&quot;&gt;Load fraction (F&lt;/span&gt;&lt;span style=&quot;font-size: 11.6667px;&quot;&gt;&lt;sub&gt;load&amp;nbsp;&lt;/sub&gt;)&lt;/span&gt;&lt;/i&gt;&lt;/font&gt;" style="text;html=1;align=center;verticalAlign=middle;resizable=0;points=[];autosize=1;strokeColor=none;fillColor=none;textDirection=vertical-lr;rotation=-180;" parent="1" vertex="1">
          <mxGeometry x="871" y="260" width="140" height="30" as="geometry" />
        </mxCell>
        <mxCell id="BMFiGqugH4gfV7-OYixn-26" value="&lt;font face=&quot;Times New Roman&quot;&gt;&lt;span style=&quot;font-size: 14px;&quot;&gt;&lt;i&gt;1.0&lt;/i&gt;&lt;/span&gt;&lt;/font&gt;" style="text;html=1;align=center;verticalAlign=middle;resizable=0;points=[];autosize=1;strokeColor=none;fillColor=none;" parent="1" vertex="1">
          <mxGeometry x="923" y="184" width="40" height="30" as="geometry" />
        </mxCell>
        <mxCell id="BMFiGqugH4gfV7-OYixn-27" value="&lt;font face=&quot;Times New Roman&quot;&gt;&lt;span style=&quot;font-size: 14px;&quot;&gt;&lt;i&gt;0.0&lt;/i&gt;&lt;/span&gt;&lt;/font&gt;" style="text;html=1;align=center;verticalAlign=middle;resizable=0;points=[];autosize=1;strokeColor=none;fillColor=none;" parent="1" vertex="1">
          <mxGeometry x="919" y="384" width="40" height="30" as="geometry" />
        </mxCell>
        <mxCell id="uk7uyBZ9MrG6PQie3o56-1" value="&lt;font face=&quot;Times New Roman&quot;&gt;&lt;span style=&quot;font-size: 14px;&quot;&gt;&lt;i&gt;-1.0&lt;/i&gt;&lt;/span&gt;&lt;/font&gt;" style="text;html=1;align=center;verticalAlign=middle;resizable=0;points=[];autosize=1;strokeColor=none;fillColor=none;" parent="1" vertex="1">
          <mxGeometry x="910" y="585" width="50" height="30" as="geometry" />
        </mxCell>
        <mxCell id="uk7uyBZ9MrG6PQie3o56-2" value="" style="endArrow=none;dashed=1;html=1;rounded=0;strokeColor=#0000FF;" parent="1" target="uk7uyBZ9MrG6PQie3o56-1" edge="1">
          <mxGeometry width="50" height="50" relative="1" as="geometry">
            <mxPoint x="1400" y="600" as="sourcePoint" />
            <mxPoint x="1410" y="370" as="targetPoint" />
          </mxGeometry>
        </mxCell>
        <mxCell id="63eDllNJsS6GosfVNrsn-1" value="" style="endArrow=classic;html=1;rounded=0;" parent="1" edge="1">
          <mxGeometry width="50" height="50" relative="1" as="geometry">
            <mxPoint x="960" y="970" as="sourcePoint" />
            <mxPoint x="1600" y="970" as="targetPoint" />
          </mxGeometry>
        </mxCell>
        <mxCell id="63eDllNJsS6GosfVNrsn-2" value="" style="endArrow=classic;html=1;rounded=0;" parent="1" edge="1">
          <mxGeometry width="50" height="50" relative="1" as="geometry">
            <mxPoint x="960" y="1230" as="sourcePoint" />
            <mxPoint x="960" y="690" as="targetPoint" />
          </mxGeometry>
        </mxCell>
        <mxCell id="63eDllNJsS6GosfVNrsn-3" value="" style="endArrow=none;dashed=1;html=1;rounded=0;strokeColor=#0000FF;" parent="1" edge="1">
          <mxGeometry width="50" height="50" relative="1" as="geometry">
            <mxPoint x="1359.8" y="1070" as="sourcePoint" />
            <mxPoint x="1359.8" y="970" as="targetPoint" />
          </mxGeometry>
        </mxCell>
        <mxCell id="63eDllNJsS6GosfVNrsn-4" value="" style="endArrow=none;dashed=1;html=1;rounded=0;strokeColor=#0000FF;exitX=0.836;exitY=0.003;exitDx=0;exitDy=0;exitPerimeter=0;" parent="1" edge="1">
          <mxGeometry width="50" height="50" relative="1" as="geometry">
            <mxPoint x="1398.6799999999998" y="1170.09" as="sourcePoint" />
            <mxPoint x="1400" y="930" as="targetPoint" />
          </mxGeometry>
        </mxCell>
        <mxCell id="63eDllNJsS6GosfVNrsn-5" value="" style="endArrow=none;dashed=1;html=1;rounded=0;strokeColor=#FF0000;" parent="1" edge="1">
          <mxGeometry width="50" height="50" relative="1" as="geometry">
            <mxPoint x="1080" y="971" as="sourcePoint" />
            <mxPoint x="1080" y="870" as="targetPoint" />
          </mxGeometry>
        </mxCell>
        <mxCell id="63eDllNJsS6GosfVNrsn-6" value="" style="endArrow=none;dashed=1;html=1;rounded=0;strokeColor=#FF0000;" parent="1" edge="1">
          <mxGeometry width="50" height="50" relative="1" as="geometry">
            <mxPoint x="1040" y="1010" as="sourcePoint" />
            <mxPoint x="1040" y="771" as="targetPoint" />
          </mxGeometry>
        </mxCell>
        <mxCell id="63eDllNJsS6GosfVNrsn-7" value="" style="endArrow=none;html=1;rounded=0;strokeWidth=3;strokeColor=#FF0000;" parent="1" edge="1">
          <mxGeometry width="50" height="50" relative="1" as="geometry">
            <mxPoint x="960" y="770" as="sourcePoint" />
            <mxPoint x="1040" y="770" as="targetPoint" />
          </mxGeometry>
        </mxCell>
        <mxCell id="63eDllNJsS6GosfVNrsn-8" value="" style="endArrow=none;html=1;rounded=0;strokeWidth=3;strokeColor=#FF0000;" parent="1" edge="1">
          <mxGeometry width="50" height="50" relative="1" as="geometry">
            <mxPoint x="1040" y="770" as="sourcePoint" />
            <mxPoint x="1120" y="970" as="targetPoint" />
          </mxGeometry>
        </mxCell>
        <mxCell id="63eDllNJsS6GosfVNrsn-9" value="" style="endArrow=none;html=1;rounded=0;strokeWidth=3;" parent="1" edge="1">
          <mxGeometry width="50" height="50" relative="1" as="geometry">
            <mxPoint x="1320" y="970" as="sourcePoint" />
            <mxPoint x="1120" y="970" as="targetPoint" />
          </mxGeometry>
        </mxCell>
        <mxCell id="63eDllNJsS6GosfVNrsn-10" value="" style="endArrow=none;html=1;rounded=0;strokeWidth=3;strokeColor=#0000FF;" parent="1" edge="1">
          <mxGeometry width="50" height="50" relative="1" as="geometry">
            <mxPoint x="1400" y="1170" as="sourcePoint" />
            <mxPoint x="1320" y="970" as="targetPoint" />
          </mxGeometry>
        </mxCell>
        <mxCell id="63eDllNJsS6GosfVNrsn-11" value="" style="endArrow=none;html=1;rounded=0;strokeWidth=3;strokeColor=#0000FF;" parent="1" edge="1">
          <mxGeometry width="50" height="50" relative="1" as="geometry">
            <mxPoint x="1400" y="1170" as="sourcePoint" />
            <mxPoint x="1480" y="1170" as="targetPoint" />
          </mxGeometry>
        </mxCell>
        <mxCell id="63eDllNJsS6GosfVNrsn-12" value="&lt;font face=&quot;Times New Roman&quot; style=&quot;font-size: 14px;&quot;&gt;&lt;i style=&quot;&quot;&gt;T&lt;sub style=&quot;&quot;&gt;csp&lt;/sub&gt;&lt;/i&gt;&lt;/font&gt;" style="text;html=1;align=center;verticalAlign=middle;resizable=0;points=[];autosize=1;strokeColor=none;fillColor=none;fontColor=#0000FF;" parent="1" vertex="1">
          <mxGeometry x="1338" y="941" width="50" height="30" as="geometry" />
        </mxCell>
        <mxCell id="63eDllNJsS6GosfVNrsn-13" value="&lt;font face=&quot;Times New Roman&quot;&gt;&lt;span style=&quot;font-size: 14px;&quot;&gt;&lt;i&gt;Space Temp. &lt;/i&gt;[ºC]&lt;/span&gt;&lt;/font&gt;" style="text;html=1;align=center;verticalAlign=middle;resizable=0;points=[];autosize=1;strokeColor=none;fillColor=none;" parent="1" vertex="1">
          <mxGeometry x="1455" y="984" width="120" height="30" as="geometry" />
        </mxCell>
        <mxCell id="63eDllNJsS6GosfVNrsn-14" value="&lt;font style=&quot;font-size: 14px;&quot; face=&quot;Times New Roman&quot;&gt;&lt;i style=&quot;&quot;&gt;T&lt;sub style=&quot;&quot;&gt;hsp&lt;/sub&gt;&lt;/i&gt;&lt;/font&gt;" style="text;html=1;align=center;verticalAlign=middle;resizable=0;points=[];autosize=1;strokeColor=none;fillColor=none;fontColor=#FF0000;" parent="1" vertex="1">
          <mxGeometry x="1056" y="970" width="50" height="30" as="geometry" />
        </mxCell>
        <mxCell id="63eDllNJsS6GosfVNrsn-15" value="" style="endArrow=classic;startArrow=classic;html=1;rounded=0;fontColor=#FF0000;strokeColor=#FF0000;" parent="1" edge="1">
          <mxGeometry width="50" height="50" relative="1" as="geometry">
            <mxPoint x="1040" y="1009" as="sourcePoint" />
            <mxPoint x="1120" y="1009" as="targetPoint" />
          </mxGeometry>
        </mxCell>
        <mxCell id="63eDllNJsS6GosfVNrsn-16" value="" style="endArrow=none;dashed=1;html=1;rounded=0;strokeColor=#FF0000;" parent="1" edge="1">
          <mxGeometry width="50" height="50" relative="1" as="geometry">
            <mxPoint x="1120" y="1010" as="sourcePoint" />
            <mxPoint x="1120" y="970" as="targetPoint" />
          </mxGeometry>
        </mxCell>
        <mxCell id="63eDllNJsS6GosfVNrsn-17" value="&lt;font face=&quot;Times New Roman&quot;&gt;&lt;span style=&quot;font-size: 14px;&quot;&gt;&lt;i&gt;Heating bandwidth&lt;/i&gt;&lt;/span&gt;&lt;/font&gt;" style="text;html=1;align=center;verticalAlign=middle;resizable=0;points=[];autosize=1;strokeColor=none;fillColor=none;fontColor=#FF0000;" parent="1" vertex="1">
          <mxGeometry x="1011" y="1010" width="130" height="30" as="geometry" />
        </mxCell>
        <mxCell id="63eDllNJsS6GosfVNrsn-18" value="" style="endArrow=classic;startArrow=classic;html=1;rounded=0;fontColor=#0000FF;strokeColor=#0000FF;" parent="1" edge="1">
          <mxGeometry width="50" height="50" relative="1" as="geometry">
            <mxPoint x="1320" y="934" as="sourcePoint" />
            <mxPoint x="1400" y="934" as="targetPoint" />
          </mxGeometry>
        </mxCell>
        <mxCell id="63eDllNJsS6GosfVNrsn-19" value="&lt;font face=&quot;Times New Roman&quot;&gt;&lt;span style=&quot;font-size: 14px;&quot;&gt;&lt;i&gt;Cooling bandwidth&lt;/i&gt;&lt;/span&gt;&lt;/font&gt;" style="text;html=1;align=center;verticalAlign=middle;resizable=0;points=[];autosize=1;strokeColor=none;fillColor=none;fontColor=#0000FF;" parent="1" vertex="1">
          <mxGeometry x="1299" y="900" width="130" height="30" as="geometry" />
        </mxCell>
        <mxCell id="63eDllNJsS6GosfVNrsn-20" value="" style="endArrow=none;dashed=1;html=1;rounded=0;strokeColor=#0000FF;" parent="1" edge="1">
          <mxGeometry width="50" height="50" relative="1" as="geometry">
            <mxPoint x="1319" y="970" as="sourcePoint" />
            <mxPoint x="1319" y="930" as="targetPoint" />
          </mxGeometry>
        </mxCell>
        <mxCell id="63eDllNJsS6GosfVNrsn-21" value="&lt;font face=&quot;Times New Roman&quot;&gt;&lt;span style=&quot;font-size: 14px;&quot;&gt;&lt;i&gt;1.0&lt;/i&gt;&lt;/span&gt;&lt;/font&gt;" style="text;html=1;align=center;verticalAlign=middle;resizable=0;points=[];autosize=1;strokeColor=none;fillColor=none;" parent="1" vertex="1">
          <mxGeometry x="923" y="754" width="40" height="30" as="geometry" />
        </mxCell>
        <mxCell id="63eDllNJsS6GosfVNrsn-22" value="&lt;font face=&quot;Times New Roman&quot;&gt;&lt;span style=&quot;font-size: 14px;&quot;&gt;&lt;i&gt;0.0&lt;/i&gt;&lt;/span&gt;&lt;/font&gt;" style="text;html=1;align=center;verticalAlign=middle;resizable=0;points=[];autosize=1;strokeColor=none;fillColor=none;" parent="1" vertex="1">
          <mxGeometry x="919" y="954" width="40" height="30" as="geometry" />
        </mxCell>
        <mxCell id="63eDllNJsS6GosfVNrsn-23" value="&lt;font face=&quot;Times New Roman&quot;&gt;&lt;span style=&quot;font-size: 14px;&quot;&gt;&lt;i&gt;-1.0&lt;/i&gt;&lt;/span&gt;&lt;/font&gt;" style="text;html=1;align=center;verticalAlign=middle;resizable=0;points=[];autosize=1;strokeColor=none;fillColor=none;" parent="1" vertex="1">
          <mxGeometry x="910" y="1155" width="50" height="30" as="geometry" />
        </mxCell>
        <mxCell id="63eDllNJsS6GosfVNrsn-24" value="" style="endArrow=none;dashed=1;html=1;rounded=0;strokeColor=#0000FF;" parent="1" target="63eDllNJsS6GosfVNrsn-23" edge="1">
          <mxGeometry width="50" height="50" relative="1" as="geometry">
            <mxPoint x="1400" y="1170" as="sourcePoint" />
            <mxPoint x="1410" y="940" as="targetPoint" />
          </mxGeometry>
        </mxCell>
        <mxCell id="63eDllNJsS6GosfVNrsn-25" value="&lt;font face=&quot;Times New Roman&quot;&gt;&lt;i style=&quot;&quot;&gt;&lt;span style=&quot;font-size: 14px;&quot;&gt;Load fraction (F&lt;/span&gt;&lt;span style=&quot;font-size: 11.6667px;&quot;&gt;&lt;sub&gt;load&amp;nbsp;&lt;/sub&gt;)&lt;/span&gt;&lt;/i&gt;&lt;/font&gt;" style="text;html=1;align=center;verticalAlign=middle;resizable=0;points=[];autosize=1;strokeColor=none;fillColor=none;textDirection=vertical-lr;rotation=-180;" parent="1" vertex="1">
          <mxGeometry x="869" y="830" width="140" height="30" as="geometry" />
        </mxCell>
        <mxCell id="63eDllNJsS6GosfVNrsn-27" value="" style="endArrow=classic;html=1;rounded=0;" parent="1" edge="1">
          <mxGeometry width="50" height="50" relative="1" as="geometry">
            <mxPoint x="1520" y="970" as="sourcePoint" />
            <mxPoint x="1520" y="699" as="targetPoint" />
          </mxGeometry>
        </mxCell>
        <mxCell id="63eDllNJsS6GosfVNrsn-28" value="&lt;font face=&quot;Times New Roman&quot;&gt;&lt;i style=&quot;&quot;&gt;&lt;span style=&quot;font-size: 14px;&quot;&gt;Outdoor air&lt;/span&gt;&lt;/i&gt;&lt;/font&gt;&lt;div&gt;&lt;font face=&quot;Times New Roman&quot;&gt;&lt;i style=&quot;&quot;&gt;&lt;span style=&quot;font-size: 14px;&quot;&gt;&amp;nbsp;fraction (F&lt;/span&gt;&lt;span style=&quot;font-size: 11.6667px;&quot;&gt;&lt;sub&gt;OA&lt;/sub&gt;&amp;nbsp;)&lt;/span&gt;&lt;/i&gt;&lt;/font&gt;&lt;/div&gt;" style="text;html=1;align=center;verticalAlign=middle;resizable=0;points=[];autosize=1;strokeColor=none;fillColor=none;textDirection=vertical-rl;rotation=-180;" parent="1" vertex="1">
          <mxGeometry x="1490" y="784" width="110" height="50" as="geometry" />
        </mxCell>
        <mxCell id="63eDllNJsS6GosfVNrsn-31" value="" style="endArrow=none;html=1;rounded=0;strokeWidth=3;strokeColor=#00CC00;" parent="1" edge="1">
          <mxGeometry width="50" height="50" relative="1" as="geometry">
            <mxPoint x="1320" y="760" as="sourcePoint" />
            <mxPoint x="1520" y="760" as="targetPoint" />
          </mxGeometry>
        </mxCell>
        <mxCell id="63eDllNJsS6GosfVNrsn-32" value="" style="endArrow=none;html=1;rounded=0;strokeWidth=3;strokeColor=#00CC00;" parent="1" edge="1">
          <mxGeometry width="50" height="50" relative="1" as="geometry">
            <mxPoint x="1240" y="900" as="sourcePoint" />
            <mxPoint x="1320" y="760" as="targetPoint" />
          </mxGeometry>
        </mxCell>
        <mxCell id="63eDllNJsS6GosfVNrsn-33" value="" style="endArrow=none;dashed=1;html=1;rounded=0;strokeColor=#00CC00;" parent="1" edge="1">
          <mxGeometry width="50" height="50" relative="1" as="geometry">
            <mxPoint x="1240" y="970" as="sourcePoint" />
            <mxPoint x="1240" y="900" as="targetPoint" />
          </mxGeometry>
        </mxCell>
        <mxCell id="63eDllNJsS6GosfVNrsn-34" value="" style="endArrow=none;dashed=1;html=1;rounded=0;strokeColor=#00CC00;" parent="1" edge="1">
          <mxGeometry width="50" height="50" relative="1" as="geometry">
            <mxPoint x="1320" y="890" as="sourcePoint" />
            <mxPoint x="1320" y="760" as="targetPoint" />
          </mxGeometry>
        </mxCell>
        <mxCell id="63eDllNJsS6GosfVNrsn-35" value="" style="endArrow=none;dashed=1;html=1;rounded=0;strokeColor=#00CC00;strokeWidth=3;" parent="1" edge="1">
          <mxGeometry width="50" height="50" relative="1" as="geometry">
            <mxPoint x="1520" y="900" as="sourcePoint" />
            <mxPoint x="1240" y="900" as="targetPoint" />
          </mxGeometry>
        </mxCell>
        <mxCell id="63eDllNJsS6GosfVNrsn-36" value="" style="endArrow=none;html=1;rounded=0;strokeWidth=3;strokeColor=#00CC00;" parent="1" edge="1">
          <mxGeometry width="50" height="50" relative="1" as="geometry">
            <mxPoint x="980" y="899" as="sourcePoint" />
            <mxPoint x="1241" y="899" as="targetPoint" />
          </mxGeometry>
        </mxCell>
        <mxCell id="63eDllNJsS6GosfVNrsn-37" value="&lt;font face=&quot;Times New Roman&quot;&gt;&lt;span style=&quot;font-size: 14px;&quot;&gt;&lt;i&gt;F&lt;sub&gt;OA,MIN&lt;/sub&gt;&lt;/i&gt;&lt;/span&gt;&lt;/font&gt;" style="text;html=1;align=center;verticalAlign=middle;resizable=0;points=[];autosize=1;strokeColor=none;fillColor=none;" parent="1" vertex="1">
          <mxGeometry x="1517" y="886" width="70" height="30" as="geometry" />
        </mxCell>
        <mxCell id="63eDllNJsS6GosfVNrsn-38" value="&lt;font face=&quot;Times New Roman&quot;&gt;&lt;span style=&quot;font-size: 14px;&quot;&gt;&lt;i&gt;1.0&lt;/i&gt;&lt;/span&gt;&lt;/font&gt;" style="text;html=1;align=center;verticalAlign=middle;resizable=0;points=[];autosize=1;strokeColor=none;fillColor=none;" parent="1" vertex="1">
          <mxGeometry x="1517" y="745" width="40" height="30" as="geometry" />
        </mxCell>
        <mxCell id="63eDllNJsS6GosfVNrsn-40" value="" style="endArrow=classic;startArrow=classic;html=1;rounded=0;fontColor=#0000FF;strokeColor=#0000FF;" parent="1" edge="1">
          <mxGeometry width="50" height="50" relative="1" as="geometry">
            <mxPoint x="1239" y="934" as="sourcePoint" />
            <mxPoint x="1318" y="934" as="targetPoint" />
          </mxGeometry>
        </mxCell>
        <mxCell id="9dD987pV4zsK_nw5ryUw-1" value="&lt;font face=&quot;Times New Roman&quot;&gt;&lt;span style=&quot;font-size: 14px;&quot;&gt;&lt;i&gt;T&lt;sub&gt;OA&lt;/sub&gt;&amp;nbsp;&amp;lt; T&lt;sub&gt;RA&lt;/sub&gt;&amp;nbsp;- DT&lt;/i&gt;&lt;/span&gt;&lt;/font&gt;" style="text;html=1;align=center;verticalAlign=middle;resizable=0;points=[];autosize=1;strokeColor=none;fillColor=none;" vertex="1" parent="1">
          <mxGeometry x="1315" y="724" width="110" height="30" as="geometry" />
        </mxCell>
        <mxCell id="9dD987pV4zsK_nw5ryUw-3" value="&lt;font face=&quot;Times New Roman&quot;&gt;&lt;span style=&quot;font-size: 14px;&quot;&gt;&lt;i&gt;T&lt;sub&gt;OA&lt;/sub&gt;&amp;nbsp;&amp;gt; T&lt;sub&gt;RA&lt;/sub&gt;&amp;nbsp;- DT&lt;/i&gt;&lt;/span&gt;&lt;/font&gt;" style="text;html=1;align=center;verticalAlign=middle;resizable=0;points=[];autosize=1;strokeColor=none;fillColor=none;" vertex="1" parent="1">
          <mxGeometry x="1345" y="870" width="110" height="30" as="geometry" />
        </mxCell>
      </root>
    </mxGraphModel>
  </diagram>
</mxfile>
